# xmcd
#
# Track frame offsets: 
#        150
#        12294
#        24405
#        36373
#        49401
#        62366
#        76152
#        88679
#        100479
#        114720
#        127536
#        138875
#        150130
#        162557
#        175987
#        188433
#        201249
#        215118
#        227245
#        240518
#        253272
#        267672
#        281876
#        296663
#        310257
#        323444
#        337162
#
# Disc length: 4636 seconds
#
# Revision: 1
# Processed by: cddbd v1.5.2PL0 Copyright (c) Steve Scherf et al.
# Submitted via: ExactAudioCopyFreeDBPlugin 1.0
#
DISCID=85121a1b
DTITLE=The Carter Family - In The Shadow Of Clinch Mountain - Vol. 11
DYEAR=2000
DGENRE=Bluegrass
TTITLE0=Black Jack David
TTITLE1=Look Away From The Cross
TTITLE2=We Shall Rise
TTITLE3=I Found You Among The Roses
TTITLE4=Bear Creek Blues
TTITLE5=I'll Never Forsake You
TTITLE6=Beautiful Isle Over the Sea
TTITLE7=It's a Long Long Road to Travel Alone
TTITLE8=Why Do You Cry, Little Darling
TTITLE9=You Tied a Knot in My Heart
TTITLE10=Lonesome Homesick Blues
TTITLE11=Dark And Stormy Weather
TTITLE12=In The Valley of the Shenandoah
TTITLE13=Girl on the Greenbriar Shore
TTITLE14=Something Got A Hold of Me
TTITLE15=Fifty Miles of Elbow Room
TTITLE16=Keep on the Firing Line
TTITLE17=The Wave on the Sea
TTITLE18=The Rambling Boy
TTITLE19=You're Gonna Be Sorry You Let Me Down
TTITLE20=Why There's a Tear In My Eye_with Jimmie Rodgers
TTITLE21=Jimmie Rodgers visits the Carter Family
TTITLE22=Sinking in the Lonesome Sea
TTITLE23=Lonesome Valley
TTITLE24=Cannon Ball Blues
TTITLE25=Worried Man Blues
TTITLE26=Single Girl, Married Girl
EXTD=
EXTT0=
EXTT1=
EXTT2=
EXTT3=
EXTT4=
EXTT5=
EXTT6=
EXTT7=
EXTT8=
EXTT9=
EXTT10=
EXTT11=
EXTT12=
EXTT13=
EXTT14=
EXTT15=
EXTT16=
EXTT17=
EXTT18=
EXTT19=
EXTT20=
EXTT21=
EXTT22=
EXTT23=
EXTT24=
EXTT25=
EXTT26=
PLAYORDER=
